<svg width="100" height="100" viewBox="0 0 100 100" fill="none" xmlns="http://www.w3.org/2000/svg">
<path fill-rule="evenodd" clip-rule="evenodd" d="M15 5C9.47714 5 5 9.47715 5 15V85C5 90.5229 9.47715 95 15 95H49.9997C55.5226 95 59.9997 90.5229 59.9997 85V77.5C59.9997 76.1193 61.119 75 62.4997 75C63.8804 75 64.9997 76.1193 64.9997 77.5V95C64.9997 97.7614 62.7611 100 59.9997 100H5C2.23858 100 0 97.7614 0 95V5C0 2.23858 2.23858 0 5 0H59.9997C62.7611 0 64.9997 2.23858 64.9997 5V22.5C64.9997 23.8807 63.8804 25 62.4997 25C61.119 25 59.9997 23.8807 59.9997 22.5V15C59.9997 9.47715 55.5225 5 49.9997 5H15ZM99.2673 48.2322L83.3574 32.3223C82.3811 31.346 80.7982 31.346 79.8219 32.3223C78.8456 33.2986 78.8456 34.8816 79.8219 35.8579L91.464 47.5H32.4998V52.5H91.464L79.8219 64.1421C78.8456 65.1184 78.8456 66.7014 79.8219 67.6777C80.7982 68.654 82.3811 68.654 83.3574 67.6777L99.2673 51.7678C100.244 50.7915 100.244 49.2085 99.2673 48.2322Z" fill="white"/>
</svg>
